<svg class="rich-terminal" viewBox="0 0 604 586.8" xmlns="http://www.w3.org/2000/svg">
    <!-- Generated with Rich https://www.textualize.io -->
    <style>

    @font-face {
        font-family: "Fira Code";
        src: local("FiraCode-Regular"),
                url("https://cdnjs.cloudflare.com/ajax/libs/firacode/6.2.0/woff2/FiraCode-Regular.woff2") format("woff2"),
                url("https://cdnjs.cloudflare.com/ajax/libs/firacode/6.2.0/woff/FiraCode-Regular.woff") format("woff");
        font-style: normal;
        font-weight: 400;
    }
    @font-face {
        font-family: "Fira Code";
        src: local("FiraCode-Bold"),
                url("https://cdnjs.cloudflare.com/ajax/libs/firacode/6.2.0/woff2/FiraCode-Bold.woff2") format("woff2"),
                url("https://cdnjs.cloudflare.com/ajax/libs/firacode/6.2.0/woff/FiraCode-Bold.woff") format("woff");
        font-style: bold;
        font-weight: 700;
    }

    .terminal-4028595055-matrix {
        font-family: Fira Code, monospace;
        font-size: 20px;
        line-height: 24.4px;
        font-variant-east-asian: full-width;
    }

    .terminal-4028595055-title {
        font-size: 18px;
        font-weight: bold;
        font-family: arial;
    }

    .terminal-4028595055-r1 { fill: #f3f1ec }
.terminal-4028595055-r2 { fill: #85817a }
.terminal-4028595055-r3 { fill: #b9b5ac }
.terminal-4028595055-r4 { fill: #f3f1ec;font-weight: bold }
.terminal-4028595055-r5 { fill: #e0796b }
    </style>

    <defs>
    <clipPath id="terminal-4028595055-clip-terminal">
      <rect x="0" y="0" width="584.5999999999999" height="535.8" />
    </clipPath>
    <clipPath id="terminal-4028595055-line-0">
    <rect x="0" y="1.5" width="585.6" height="24.65"/>
            </clipPath>
<clipPath id="terminal-4028595055-line-1">
    <rect x="0" y="25.9" width="585.6" height="24.65"/>
            </clipPath>
<clipPath id="terminal-4028595055-line-2">
    <rect x="0" y="50.3" width="585.6" height="24.65"/>
            </clipPath>
<clipPath id="terminal-4028595055-line-3">
    <rect x="0" y="74.7" width="585.6" height="24.65"/>
            </clipPath>
<clipPath id="terminal-4028595055-line-4">
    <rect x="0" y="99.1" width="585.6" height="24.65"/>
            </clipPath>
<clipPath id="terminal-4028595055-line-5">
    <rect x="0" y="123.5" width="585.6" height="24.65"/>
            </clipPath>
<clipPath id="terminal-4028595055-line-6">
    <rect x="0" y="147.9" width="585.6" height="24.65"/>
            </clipPath>
<clipPath id="terminal-4028595055-line-7">
    <rect x="0" y="172.3" width="585.6" height="24.65"/>
            </clipPath>
<clipPath id="terminal-4028595055-line-8">
    <rect x="0" y="196.7" width="585.6" height="24.65"/>
            </clipPath>
<clipPath id="terminal-4028595055-line-9">
    <rect x="0" y="221.1" width="585.6" height="24.65"/>
            </clipPath>
<clipPath id="terminal-4028595055-line-10">
    <rect x="0" y="245.5" width="585.6" height="24.65"/>
            </clipPath>
<clipPath id="terminal-4028595055-line-11">
    <rect x="0" y="269.9" width="585.6" height="24.65"/>
            </clipPath>
<clipPath id="terminal-4028595055-line-12">
    <rect x="0" y="294.3" width="585.6" height="24.65"/>
            </clipPath>
<clipPath id="terminal-4028595055-line-13">
    <rect x="0" y="318.7" width="585.6" height="24.65"/>
            </clipPath>
<clipPath id="terminal-4028595055-line-14">
    <rect x="0" y="343.1" width="585.6" height="24.65"/>
            </clipPath>
<clipPath id="terminal-4028595055-line-15">
    <rect x="0" y="367.5" width="585.6" height="24.65"/>
            </clipPath>
<clipPath id="terminal-4028595055-line-16">
    <rect x="0" y="391.9" width="585.6" height="24.65"/>
            </clipPath>
<clipPath id="terminal-4028595055-line-17">
    <rect x="0" y="416.3" width="585.6" height="24.65"/>
            </clipPath>
<clipPath id="terminal-4028595055-line-18">
    <rect x="0" y="440.7" width="585.6" height="24.65"/>
            </clipPath>
<clipPath id="terminal-4028595055-line-19">
    <rect x="0" y="465.1" width="585.6" height="24.65"/>
            </clipPath>
<clipPath id="terminal-4028595055-line-20">
    <rect x="0" y="489.5" width="585.6" height="24.65"/>
            </clipPath>
    </defs>

    <rect fill="#17171a" stroke="rgba(255,255,255,0.35)" stroke-width="1" x="1" y="1" width="602" height="584.8" rx="8"/><text class="terminal-4028595055-title" fill="#f3f1ec" text-anchor="middle" x="301" y="27">chess-tui</text>
            <g transform="translate(26,22)">
            <circle cx="0" cy="0" r="7" fill="#ff5f57"/>
            <circle cx="22" cy="0" r="7" fill="#febc2e"/>
            <circle cx="44" cy="0" r="7" fill="#28c840"/>
            </g>
        
    <g transform="translate(9, 41)" clip-path="url(#terminal-4028595055-clip-terminal)">
    <rect fill="#3b3b42" x="36.6" y="50.3" width="48.8" height="24.65" shape-rendering="crispEdges"/><rect fill="#26262b" x="85.4" y="50.3" width="48.8" height="24.65" shape-rendering="crispEdges"/><rect fill="#3b3b42" x="134.2" y="50.3" width="48.8" height="24.65" shape-rendering="crispEdges"/><rect fill="#26262b" x="183" y="50.3" width="48.8" height="24.65" shape-rendering="crispEdges"/><rect fill="#3b3b42" x="231.8" y="50.3" width="48.8" height="24.65" shape-rendering="crispEdges"/><rect fill="#26262b" x="280.6" y="50.3" width="48.8" height="24.65" shape-rendering="crispEdges"/><rect fill="#3b3b42" x="329.4" y="50.3" width="48.8" height="24.65" shape-rendering="crispEdges"/><rect fill="#26262b" x="378.2" y="50.3" width="48.8" height="24.65" shape-rendering="crispEdges"/><rect fill="#3b3b42" x="36.6" y="74.7" width="48.8" height="24.65" shape-rendering="crispEdges"/><rect fill="#26262b" x="85.4" y="74.7" width="48.8" height="24.65" shape-rendering="crispEdges"/><rect fill="#3b3b42" x="134.2" y="74.7" width="48.8" height="24.65" shape-rendering="crispEdges"/><rect fill="#26262b" x="183" y="74.7" width="48.8" height="24.65" shape-rendering="crispEdges"/><rect fill="#3b3b42" x="231.8" y="74.7" width="48.8" height="24.65" shape-rendering="crispEdges"/><rect fill="#26262b" x="280.6" y="74.7" width="48.8" height="24.65" shape-rendering="crispEdges"/><rect fill="#3b3b42" x="329.4" y="74.7" width="48.8" height="24.65" shape-rendering="crispEdges"/><rect fill="#26262b" x="378.2" y="74.7" width="48.8" height="24.65" shape-rendering="crispEdges"/><rect fill="#26262b" x="36.6" y="99.1" width="48.8" height="24.65" shape-rendering="crispEdges"/><rect fill="#3b3b42" x="85.4" y="99.1" width="48.8" height="24.65" shape-rendering="crispEdges"/><rect fill="#26262b" x="134.2" y="99.1" width="48.8" height="24.65" shape-rendering="crispEdges"/><rect fill="#3b3b42" x="183" y="99.1" width="48.8" height="24.65" shape-rendering="crispEdges"/><rect fill="#26262b" x="231.8" y="99.1" width="48.8" height="24.65" shape-rendering="crispEdges"/><rect fill="#3b3b42" x="280.6" y="99.1" width="48.8" height="24.65" shape-rendering="crispEdges"/><rect fill="#26262b" x="329.4" y="99.1" width="48.8" height="24.65" shape-rendering="crispEdges"/><rect fill="#3b3b42" x="378.2" y="99.1" width="48.8" height="24.65" shape-rendering="crispEdges"/><rect fill="#26262b" x="36.6" y="123.5" width="48.8" height="24.65" shape-rendering="crispEdges"/><rect fill="#3b3b42" x="85.4" y="123.5" width="48.8" height="24.65" shape-rendering="crispEdges"/><rect fill="#26262b" x="134.2" y="123.5" width="48.8" height="24.65" shape-rendering="crispEdges"/><rect fill="#3b3b42" x="183" y="123.5" width="48.8" height="24.65" shape-rendering="crispEdges"/><rect fill="#26262b" x="231.8" y="123.5" width="48.8" height="24.65" shape-rendering="crispEdges"/><rect fill="#3b3b42" x="280.6" y="123.5" width="48.8" height="24.65" shape-rendering="crispEdges"/><rect fill="#26262b" x="329.4" y="123.5" width="48.8" height="24.65" shape-rendering="crispEdges"/><rect fill="#3b3b42" x="378.2" y="123.5" width="48.8" height="24.65" shape-rendering="crispEdges"/><rect fill="#3b3b42" x="36.6" y="147.9" width="48.8" height="24.65" shape-rendering="crispEdges"/><rect fill="#26262b" x="85.4" y="147.9" width="48.8" height="24.65" shape-rendering="crispEdges"/><rect fill="#3b3b42" x="134.2" y="147.9" width="48.8" height="24.65" shape-rendering="crispEdges"/><rect fill="#26262b" x="183" y="147.9" width="48.8" height="24.65" shape-rendering="crispEdges"/><rect fill="#3b3b42" x="231.8" y="147.9" width="48.8" height="24.65" shape-rendering="crispEdges"/><rect fill="#26262b" x="280.6" y="147.9" width="48.8" height="24.65" shape-rendering="crispEdges"/><rect fill="#3b3b42" x="329.4" y="147.9" width="48.8" height="24.65" shape-rendering="crispEdges"/><rect fill="#26262b" x="378.2" y="147.9" width="48.8" height="24.65" shape-rendering="crispEdges"/><rect fill="#3b3b42" x="36.6" y="172.3" width="48.8" height="24.65" shape-rendering="crispEdges"/><rect fill="#26262b" x="85.4" y="172.3" width="48.8" height="24.65" shape-rendering="crispEdges"/><rect fill="#3b3b42" x="134.2" y="172.3" width="48.8" height="24.65" shape-rendering="crispEdges"/><rect fill="#26262b" x="183" y="172.3" width="48.8" height="24.65" shape-rendering="crispEdges"/><rect fill="#3b3b42" x="231.8" y="172.3" width="48.8" height="24.65" shape-rendering="crispEdges"/><rect fill="#26262b" x="280.6" y="172.3" width="48.8" height="24.65" shape-rendering="crispEdges"/><rect fill="#3b3b42" x="329.4" y="172.3" width="48.8" height="24.65" shape-rendering="crispEdges"/><rect fill="#26262b" x="378.2" y="172.3" width="48.8" height="24.65" shape-rendering="crispEdges"/><rect fill="#26262b" x="36.6" y="196.7" width="48.8" height="24.65" shape-rendering="crispEdges"/><rect fill="#3b3b42" x="85.4" y="196.7" width="48.8" height="24.65" shape-rendering="crispEdges"/><rect fill="#26262b" x="134.2" y="196.7" width="48.8" height="24.65" shape-rendering="crispEdges"/><rect fill="#3b3b42" x="183" y="196.7" width="48.8" height="24.65" shape-rendering="crispEdges"/><rect fill="#26262b" x="231.8" y="196.7" width="48.8" height="24.65" shape-rendering="crispEdges"/><rect fill="#3b3b42" x="280.6" y="196.7" width="48.8" height="24.65" shape-rendering="crispEdges"/><rect fill="#26262b" x="329.4" y="196.7" width="48.8" height="24.65" shape-rendering="crispEdges"/><rect fill="#3b3b42" x="378.2" y="196.7" width="48.8" height="24.65" shape-rendering="crispEdges"/><rect fill="#26262b" x="36.6" y="221.1" width="48.8" height="24.65" shape-rendering="crispEdges"/><rect fill="#3b3b42" x="85.4" y="221.1" width="48.8" height="24.65" shape-rendering="crispEdges"/><rect fill="#26262b" x="134.2" y="221.1" width="48.8" height="24.65" shape-rendering="crispEdges"/><rect fill="#3b3b42" x="183" y="221.1" width="48.8" height="24.65" shape-rendering="crispEdges"/><rect fill="#26262b" x="231.8" y="221.1" width="48.8" height="24.65" shape-rendering="crispEdges"/><rect fill="#3b3b42" x="280.6" y="221.1" width="48.8" height="24.65" shape-rendering="crispEdges"/><rect fill="#26262b" x="329.4" y="221.1" width="48.8" height="24.65" shape-rendering="crispEdges"/><rect fill="#3b3b42" x="378.2" y="221.1" width="48.8" height="24.65" shape-rendering="crispEdges"/><rect fill="#3b3b42" x="36.6" y="245.5" width="48.8" height="24.65" shape-rendering="crispEdges"/><rect fill="#26262b" x="85.4" y="245.5" width="48.8" height="24.65" shape-rendering="crispEdges"/><rect fill="#3b3b42" x="134.2" y="245.5" width="48.8" height="24.65" shape-rendering="crispEdges"/><rect fill="#26262b" x="183" y="245.5" width="48.8" height="24.65" shape-rendering="crispEdges"/><rect fill="#46557f" x="231.8" y="245.5" width="48.8" height="24.65" shape-rendering="crispEdges"/><rect fill="#26262b" x="280.6" y="245.5" width="48.8" height="24.65" shape-rendering="crispEdges"/><rect fill="#3b3b42" x="329.4" y="245.5" width="48.8" height="24.65" shape-rendering="crispEdges"/><rect fill="#26262b" x="378.2" y="245.5" width="48.8" height="24.65" shape-rendering="crispEdges"/><rect fill="#3b3b42" x="36.6" y="269.9" width="48.8" height="24.65" shape-rendering="crispEdges"/><rect fill="#26262b" x="85.4" y="269.9" width="48.8" height="24.65" shape-rendering="crispEdges"/><rect fill="#3b3b42" x="134.2" y="269.9" width="48.8" height="24.65" shape-rendering="crispEdges"/><rect fill="#26262b" x="183" y="269.9" width="48.8" height="24.65" shape-rendering="crispEdges"/><rect fill="#46557f" x="231.8" y="269.9" width="48.8" height="24.65" shape-rendering="crispEdges"/><rect fill="#26262b" x="280.6" y="269.9" width="48.8" height="24.65" shape-rendering="crispEdges"/><rect fill="#3b3b42" x="329.4" y="269.9" width="48.8" height="24.65" shape-rendering="crispEdges"/><rect fill="#26262b" x="378.2" y="269.9" width="48.8" height="24.65" shape-rendering="crispEdges"/><rect fill="#26262b" x="36.6" y="294.3" width="48.8" height="24.65" shape-rendering="crispEdges"/><rect fill="#3b3b42" x="85.4" y="294.3" width="48.8" height="24.65" shape-rendering="crispEdges"/><rect fill="#26262b" x="134.2" y="294.3" width="48.8" height="24.65" shape-rendering="crispEdges"/><rect fill="#3b3b42" x="183" y="294.3" width="48.8" height="24.65" shape-rendering="crispEdges"/><rect fill="#26262b" x="231.8" y="294.3" width="48.8" height="24.65" shape-rendering="crispEdges"/><rect fill="#3b3b42" x="280.6" y="294.3" width="48.8" height="24.65" shape-rendering="crispEdges"/><rect fill="#26262b" x="329.4" y="294.3" width="48.8" height="24.65" shape-rendering="crispEdges"/><rect fill="#3b3b42" x="378.2" y="294.3" width="48.8" height="24.65" shape-rendering="crispEdges"/><rect fill="#26262b" x="36.6" y="318.7" width="48.8" height="24.65" shape-rendering="crispEdges"/><rect fill="#3b3b42" x="85.4" y="318.7" width="48.8" height="24.65" shape-rendering="crispEdges"/><rect fill="#26262b" x="134.2" y="318.7" width="48.8" height="24.65" shape-rendering="crispEdges"/><rect fill="#3b3b42" x="183" y="318.7" width="48.8" height="24.65" shape-rendering="crispEdges"/><rect fill="#26262b" x="231.8" y="318.7" width="48.8" height="24.65" shape-rendering="crispEdges"/><rect fill="#3b3b42" x="280.6" y="318.7" width="48.8" height="24.65" shape-rendering="crispEdges"/><rect fill="#26262b" x="329.4" y="318.7" width="48.8" height="24.65" shape-rendering="crispEdges"/><rect fill="#3b3b42" x="378.2" y="318.7" width="48.8" height="24.65" shape-rendering="crispEdges"/><rect fill="#3b3b42" x="36.6" y="343.1" width="48.8" height="24.65" shape-rendering="crispEdges"/><rect fill="#26262b" x="85.4" y="343.1" width="48.8" height="24.65" shape-rendering="crispEdges"/><rect fill="#3b3b42" x="134.2" y="343.1" width="48.8" height="24.65" shape-rendering="crispEdges"/><rect fill="#26262b" x="183" y="343.1" width="48.8" height="24.65" shape-rendering="crispEdges"/><rect fill="#46557f" x="231.8" y="343.1" width="48.8" height="24.65" shape-rendering="crispEdges"/><rect fill="#26262b" x="280.6" y="343.1" width="48.8" height="24.65" shape-rendering="crispEdges"/><rect fill="#3b3b42" x="329.4" y="343.1" width="48.8" height="24.65" shape-rendering="crispEdges"/><rect fill="#26262b" x="378.2" y="343.1" width="48.8" height="24.65" shape-rendering="crispEdges"/><rect fill="#3b3b42" x="36.6" y="367.5" width="48.8" height="24.65" shape-rendering="crispEdges"/><rect fill="#26262b" x="85.4" y="367.5" width="48.8" height="24.65" shape-rendering="crispEdges"/><rect fill="#3b3b42" x="134.2" y="367.5" width="48.8" height="24.65" shape-rendering="crispEdges"/><rect fill="#26262b" x="183" y="367.5" width="48.8" height="24.65" shape-rendering="crispEdges"/><rect fill="#46557f" x="231.8" y="367.5" width="48.8" height="24.65" shape-rendering="crispEdges"/><rect fill="#26262b" x="280.6" y="367.5" width="48.8" height="24.65" shape-rendering="crispEdges"/><rect fill="#3b3b42" x="329.4" y="367.5" width="48.8" height="24.65" shape-rendering="crispEdges"/><rect fill="#26262b" x="378.2" y="367.5" width="48.8" height="24.65" shape-rendering="crispEdges"/><rect fill="#26262b" x="36.6" y="391.9" width="48.8" height="24.65" shape-rendering="crispEdges"/><rect fill="#3b3b42" x="85.4" y="391.9" width="48.8" height="24.65" shape-rendering="crispEdges"/><rect fill="#26262b" x="134.2" y="391.9" width="48.8" height="24.65" shape-rendering="crispEdges"/><rect fill="#3b3b42" x="183" y="391.9" width="48.8" height="24.65" shape-rendering="crispEdges"/><rect fill="#26262b" x="231.8" y="391.9" width="48.8" height="24.65" shape-rendering="crispEdges"/><rect fill="#3b3b42" x="280.6" y="391.9" width="48.8" height="24.65" shape-rendering="crispEdges"/><rect fill="#26262b" x="329.4" y="391.9" width="48.8" height="24.65" shape-rendering="crispEdges"/><rect fill="#3b3b42" x="378.2" y="391.9" width="48.8" height="24.65" shape-rendering="crispEdges"/><rect fill="#26262b" x="36.6" y="416.3" width="48.8" height="24.65" shape-rendering="crispEdges"/><rect fill="#3b3b42" x="85.4" y="416.3" width="48.8" height="24.65" shape-rendering="crispEdges"/><rect fill="#26262b" x="134.2" y="416.3" width="48.8" height="24.65" shape-rendering="crispEdges"/><rect fill="#3b3b42" x="183" y="416.3" width="48.8" height="24.65" shape-rendering="crispEdges"/><rect fill="#26262b" x="231.8" y="416.3" width="48.8" height="24.65" shape-rendering="crispEdges"/><rect fill="#3b3b42" x="280.6" y="416.3" width="48.8" height="24.65" shape-rendering="crispEdges"/><rect fill="#26262b" x="329.4" y="416.3" width="48.8" height="24.65" shape-rendering="crispEdges"/><rect fill="#3b3b42" x="378.2" y="416.3" width="48.8" height="24.65" shape-rendering="crispEdges"/>
    <g class="terminal-4028595055-matrix">
    <text class="terminal-4028595055-r1" x="0" y="20" textLength="439.2" clip-path="url(#terminal-4028595055-line-0)">ramon:&#160;White&#160;|&#160;Gemma:&#160;Black&#160;|&#160;move&#160;1</text><text class="terminal-4028595055-r1" x="585.6" y="20" textLength="12.2" clip-path="url(#terminal-4028595055-line-0)">
</text><text class="terminal-4028595055-r2" x="0" y="44.4" textLength="402.6" clip-path="url(#terminal-4028595055-line-1)">&#160;&#160;&#160;&#160;a&#160;&#160;&#160;b&#160;&#160;&#160;c&#160;&#160;&#160;d&#160;&#160;&#160;e&#160;&#160;&#160;f&#160;&#160;&#160;g&#160;&#160;&#160;h</text><text class="terminal-4028595055-r1" x="585.6" y="44.4" textLength="12.2" clip-path="url(#terminal-4028595055-line-1)">
</text><text class="terminal-4028595055-r2" x="0" y="68.8" textLength="36.6" clip-path="url(#terminal-4028595055-line-2)">&#160;8&#160;</text><text class="terminal-4028595055-r3" x="36.6" y="68.8" textLength="48.8" clip-path="url(#terminal-4028595055-line-2)">&#160;r&#160;&#160;</text><text class="terminal-4028595055-r3" x="85.4" y="68.8" textLength="48.8" clip-path="url(#terminal-4028595055-line-2)">&#160;n&#160;&#160;</text><text class="terminal-4028595055-r3" x="134.2" y="68.8" textLength="48.8" clip-path="url(#terminal-4028595055-line-2)">&#160;b&#160;&#160;</text><text class="terminal-4028595055-r3" x="183" y="68.8" textLength="48.8" clip-path="url(#terminal-4028595055-line-2)">&#160;q&#160;&#160;</text><text class="terminal-4028595055-r3" x="231.8" y="68.8" textLength="48.8" clip-path="url(#terminal-4028595055-line-2)">&#160;k&#160;&#160;</text><text class="terminal-4028595055-r3" x="280.6" y="68.8" textLength="48.8" clip-path="url(#terminal-4028595055-line-2)">&#160;b&#160;&#160;</text><text class="terminal-4028595055-r3" x="329.4" y="68.8" textLength="48.8" clip-path="url(#terminal-4028595055-line-2)">&#160;n&#160;&#160;</text><text class="terminal-4028595055-r3" x="378.2" y="68.8" textLength="48.8" clip-path="url(#terminal-4028595055-line-2)">&#160;r&#160;&#160;</text><text class="terminal-4028595055-r2" x="427" y="68.8" textLength="24.4" clip-path="url(#terminal-4028595055-line-2)">&#160;8</text><text class="terminal-4028595055-r1" x="585.6" y="68.8" textLength="12.2" clip-path="url(#terminal-4028595055-line-2)">
</text><text class="terminal-4028595055-r1" x="585.6" y="93.2" textLength="12.2" clip-path="url(#terminal-4028595055-line-3)">
</text><text class="terminal-4028595055-r2" x="0" y="117.6" textLength="36.6" clip-path="url(#terminal-4028595055-line-4)">&#160;7&#160;</text><text class="terminal-4028595055-r3" x="36.6" y="117.6" textLength="48.8" clip-path="url(#terminal-4028595055-line-4)">&#160;p&#160;&#160;</text><text class="terminal-4028595055-r3" x="85.4" y="117.6" textLength="48.8" clip-path="url(#terminal-4028595055-line-4)">&#160;p&#160;&#160;</text><text class="terminal-4028595055-r3" x="134.2" y="117.6" textLength="48.8" clip-path="url(#terminal-4028595055-line-4)">&#160;p&#160;&#160;</text><text class="terminal-4028595055-r3" x="183" y="117.6" textLength="48.8" clip-path="url(#terminal-4028595055-line-4)">&#160;p&#160;&#160;</text><text class="terminal-4028595055-r3" x="231.8" y="117.6" textLength="48.8" clip-path="url(#terminal-4028595055-line-4)">&#160;p&#160;&#160;</text><text class="terminal-4028595055-r3" x="280.6" y="117.6" textLength="48.8" clip-path="url(#terminal-4028595055-line-4)">&#160;p&#160;&#160;</text><text class="terminal-4028595055-r3" x="329.4" y="117.6" textLength="48.8" clip-path="url(#terminal-4028595055-line-4)">&#160;p&#160;&#160;</text><text class="terminal-4028595055-r3" x="378.2" y="117.6" textLength="48.8" clip-path="url(#terminal-4028595055-line-4)">&#160;p&#160;&#160;</text><text class="terminal-4028595055-r2" x="427" y="117.6" textLength="24.4" clip-path="url(#terminal-4028595055-line-4)">&#160;7</text><text class="terminal-4028595055-r1" x="585.6" y="117.6" textLength="12.2" clip-path="url(#terminal-4028595055-line-4)">
</text><text class="terminal-4028595055-r1" x="585.6" y="142" textLength="12.2" clip-path="url(#terminal-4028595055-line-5)">
</text><text class="terminal-4028595055-r2" x="0" y="166.4" textLength="36.6" clip-path="url(#terminal-4028595055-line-6)">&#160;6&#160;</text><text class="terminal-4028595055-r2" x="36.6" y="166.4" textLength="48.8" clip-path="url(#terminal-4028595055-line-6)">&#160;.&#160;&#160;</text><text class="terminal-4028595055-r2" x="85.4" y="166.4" textLength="48.8" clip-path="url(#terminal-4028595055-line-6)">&#160;.&#160;&#160;</text><text class="terminal-4028595055-r2" x="134.2" y="166.4" textLength="48.8" clip-path="url(#terminal-4028595055-line-6)">&#160;.&#160;&#160;</text><text class="terminal-4028595055-r2" x="183" y="166.4" textLength="48.8" clip-path="url(#terminal-4028595055-line-6)">&#160;.&#160;&#160;</text><text class="terminal-4028595055-r2" x="231.8" y="166.4" textLength="48.8" clip-path="url(#terminal-4028595055-line-6)">&#160;.&#160;&#160;</text><text class="terminal-4028595055-r2" x="280.6" y="166.4" textLength="48.8" clip-path="url(#terminal-4028595055-line-6)">&#160;.&#160;&#160;</text><text class="terminal-4028595055-r2" x="329.4" y="166.4" textLength="48.8" clip-path="url(#terminal-4028595055-line-6)">&#160;.&#160;&#160;</text><text class="terminal-4028595055-r2" x="378.2" y="166.4" textLength="48.8" clip-path="url(#terminal-4028595055-line-6)">&#160;.&#160;&#160;</text><text class="terminal-4028595055-r2" x="427" y="166.4" textLength="24.4" clip-path="url(#terminal-4028595055-line-6)">&#160;6</text><text class="terminal-4028595055-r1" x="585.6" y="166.4" textLength="12.2" clip-path="url(#terminal-4028595055-line-6)">
</text><text class="terminal-4028595055-r1" x="585.6" y="190.8" textLength="12.2" clip-path="url(#terminal-4028595055-line-7)">
</text><text class="terminal-4028595055-r2" x="0" y="215.2" textLength="36.6" clip-path="url(#terminal-4028595055-line-8)">&#160;5&#160;</text><text class="terminal-4028595055-r2" x="36.6" y="215.2" textLength="48.8" clip-path="url(#terminal-4028595055-line-8)">&#160;.&#160;&#160;</text><text class="terminal-4028595055-r2" x="85.4" y="215.2" textLength="48.8" clip-path="url(#terminal-4028595055-line-8)">&#160;.&#160;&#160;</text><text class="terminal-4028595055-r2" x="134.2" y="215.2" textLength="48.8" clip-path="url(#terminal-4028595055-line-8)">&#160;.&#160;&#160;</text><text class="terminal-4028595055-r2" x="183" y="215.2" textLength="48.8" clip-path="url(#terminal-4028595055-line-8)">&#160;.&#160;&#160;</text><text class="terminal-4028595055-r2" x="231.8" y="215.2" textLength="48.8" clip-path="url(#terminal-4028595055-line-8)">&#160;.&#160;&#160;</text><text class="terminal-4028595055-r2" x="280.6" y="215.2" textLength="48.8" clip-path="url(#terminal-4028595055-line-8)">&#160;.&#160;&#160;</text><text class="terminal-4028595055-r2" x="329.4" y="215.2" textLength="48.8" clip-path="url(#terminal-4028595055-line-8)">&#160;.&#160;&#160;</text><text class="terminal-4028595055-r2" x="378.2" y="215.2" textLength="48.8" clip-path="url(#terminal-4028595055-line-8)">&#160;.&#160;&#160;</text><text class="terminal-4028595055-r2" x="427" y="215.2" textLength="24.4" clip-path="url(#terminal-4028595055-line-8)">&#160;5</text><text class="terminal-4028595055-r1" x="585.6" y="215.2" textLength="12.2" clip-path="url(#terminal-4028595055-line-8)">
</text><text class="terminal-4028595055-r1" x="585.6" y="239.6" textLength="12.2" clip-path="url(#terminal-4028595055-line-9)">
</text><text class="terminal-4028595055-r2" x="0" y="264" textLength="36.6" clip-path="url(#terminal-4028595055-line-10)">&#160;4&#160;</text><text class="terminal-4028595055-r2" x="36.6" y="264" textLength="48.8" clip-path="url(#terminal-4028595055-line-10)">&#160;.&#160;&#160;</text><text class="terminal-4028595055-r2" x="85.4" y="264" textLength="48.8" clip-path="url(#terminal-4028595055-line-10)">&#160;.&#160;&#160;</text><text class="terminal-4028595055-r2" x="134.2" y="264" textLength="48.8" clip-path="url(#terminal-4028595055-line-10)">&#160;.&#160;&#160;</text><text class="terminal-4028595055-r2" x="183" y="264" textLength="48.8" clip-path="url(#terminal-4028595055-line-10)">&#160;.&#160;&#160;</text><text class="terminal-4028595055-r4" x="231.8" y="264" textLength="48.8" clip-path="url(#terminal-4028595055-line-10)">&#160;P&#160;&#160;</text><text class="terminal-4028595055-r2" x="280.6" y="264" textLength="48.8" clip-path="url(#terminal-4028595055-line-10)">&#160;.&#160;&#160;</text><text class="terminal-4028595055-r2" x="329.4" y="264" textLength="48.8" clip-path="url(#terminal-4028595055-line-10)">&#160;.&#160;&#160;</text><text class="terminal-4028595055-r2" x="378.2" y="264" textLength="48.8" clip-path="url(#terminal-4028595055-line-10)">&#160;.&#160;&#160;</text><text class="terminal-4028595055-r2" x="427" y="264" textLength="24.4" clip-path="url(#terminal-4028595055-line-10)">&#160;4</text><text class="terminal-4028595055-r1" x="585.6" y="264" textLength="12.2" clip-path="url(#terminal-4028595055-line-10)">
</text><text class="terminal-4028595055-r1" x="585.6" y="288.4" textLength="12.2" clip-path="url(#terminal-4028595055-line-11)">
</text><text class="terminal-4028595055-r2" x="0" y="312.8" textLength="36.6" clip-path="url(#terminal-4028595055-line-12)">&#160;3&#160;</text><text class="terminal-4028595055-r2" x="36.6" y="312.8" textLength="48.8" clip-path="url(#terminal-4028595055-line-12)">&#160;.&#160;&#160;</text><text class="terminal-4028595055-r2" x="85.4" y="312.8" textLength="48.8" clip-path="url(#terminal-4028595055-line-12)">&#160;.&#160;&#160;</text><text class="terminal-4028595055-r2" x="134.2" y="312.8" textLength="48.8" clip-path="url(#terminal-4028595055-line-12)">&#160;.&#160;&#160;</text><text class="terminal-4028595055-r2" x="183" y="312.8" textLength="48.8" clip-path="url(#terminal-4028595055-line-12)">&#160;.&#160;&#160;</text><text class="terminal-4028595055-r2" x="231.8" y="312.8" textLength="48.8" clip-path="url(#terminal-4028595055-line-12)">&#160;.&#160;&#160;</text><text class="terminal-4028595055-r2" x="280.6" y="312.8" textLength="48.8" clip-path="url(#terminal-4028595055-line-12)">&#160;.&#160;&#160;</text><text class="terminal-4028595055-r2" x="329.4" y="312.8" textLength="48.8" clip-path="url(#terminal-4028595055-line-12)">&#160;.&#160;&#160;</text><text class="terminal-4028595055-r2" x="378.2" y="312.8" textLength="48.8" clip-path="url(#terminal-4028595055-line-12)">&#160;.&#160;&#160;</text><text class="terminal-4028595055-r2" x="427" y="312.8" textLength="24.4" clip-path="url(#terminal-4028595055-line-12)">&#160;3</text><text class="terminal-4028595055-r1" x="585.6" y="312.8" textLength="12.2" clip-path="url(#terminal-4028595055-line-12)">
</text><text class="terminal-4028595055-r1" x="585.6" y="337.2" textLength="12.2" clip-path="url(#terminal-4028595055-line-13)">
</text><text class="terminal-4028595055-r2" x="0" y="361.6" textLength="36.6" clip-path="url(#terminal-4028595055-line-14)">&#160;2&#160;</text><text class="terminal-4028595055-r4" x="36.6" y="361.6" textLength="48.8" clip-path="url(#terminal-4028595055-line-14)">&#160;P&#160;&#160;</text><text class="terminal-4028595055-r4" x="85.4" y="361.6" textLength="48.8" clip-path="url(#terminal-4028595055-line-14)">&#160;P&#160;&#160;</text><text class="terminal-4028595055-r4" x="134.2" y="361.6" textLength="48.8" clip-path="url(#terminal-4028595055-line-14)">&#160;P&#160;&#160;</text><text class="terminal-4028595055-r4" x="183" y="361.6" textLength="48.8" clip-path="url(#terminal-4028595055-line-14)">&#160;P&#160;&#160;</text><text class="terminal-4028595055-r2" x="231.8" y="361.6" textLength="48.8" clip-path="url(#terminal-4028595055-line-14)">&#160;.&#160;&#160;</text><text class="terminal-4028595055-r4" x="280.6" y="361.6" textLength="48.8" clip-path="url(#terminal-4028595055-line-14)">&#160;P&#160;&#160;</text><text class="terminal-4028595055-r4" x="329.4" y="361.6" textLength="48.8" clip-path="url(#terminal-4028595055-line-14)">&#160;P&#160;&#160;</text><text class="terminal-4028595055-r4" x="378.2" y="361.6" textLength="48.8" clip-path="url(#terminal-4028595055-line-14)">&#160;P&#160;&#160;</text><text class="terminal-4028595055-r2" x="427" y="361.6" textLength="24.4" clip-path="url(#terminal-4028595055-line-14)">&#160;2</text><text class="terminal-4028595055-r1" x="585.6" y="361.6" textLength="12.2" clip-path="url(#terminal-4028595055-line-14)">
</text><text class="terminal-4028595055-r1" x="585.6" y="386" textLength="12.2" clip-path="url(#terminal-4028595055-line-15)">
</text><text class="terminal-4028595055-r2" x="0" y="410.4" textLength="36.6" clip-path="url(#terminal-4028595055-line-16)">&#160;1&#160;</text><text class="terminal-4028595055-r4" x="36.6" y="410.4" textLength="48.8" clip-path="url(#terminal-4028595055-line-16)">&#160;R&#160;&#160;</text><text class="terminal-4028595055-r4" x="85.4" y="410.4" textLength="48.8" clip-path="url(#terminal-4028595055-line-16)">&#160;N&#160;&#160;</text><text class="terminal-4028595055-r4" x="134.2" y="410.4" textLength="48.8" clip-path="url(#terminal-4028595055-line-16)">&#160;B&#160;&#160;</text><text class="terminal-4028595055-r4" x="183" y="410.4" textLength="48.8" clip-path="url(#terminal-4028595055-line-16)">&#160;Q&#160;&#160;</text><text class="terminal-4028595055-r4" x="231.8" y="410.4" textLength="48.8" clip-path="url(#terminal-4028595055-line-16)">&#160;K&#160;&#160;</text><text class="terminal-4028595055-r4" x="280.6" y="410.4" textLength="48.8" clip-path="url(#terminal-4028595055-line-16)">&#160;B&#160;&#160;</text><text class="terminal-4028595055-r4" x="329.4" y="410.4" textLength="48.8" clip-path="url(#terminal-4028595055-line-16)">&#160;N&#160;&#160;</text><text class="terminal-4028595055-r4" x="378.2" y="410.4" textLength="48.8" clip-path="url(#terminal-4028595055-line-16)">&#160;R&#160;&#160;</text><text class="terminal-4028595055-r2" x="427" y="410.4" textLength="24.4" clip-path="url(#terminal-4028595055-line-16)">&#160;1</text><text class="terminal-4028595055-r1" x="585.6" y="410.4" textLength="12.2" clip-path="url(#terminal-4028595055-line-16)">
</text><text class="terminal-4028595055-r1" x="585.6" y="434.8" textLength="12.2" clip-path="url(#terminal-4028595055-line-17)">
</text><text class="terminal-4028595055-r2" x="0" y="459.2" textLength="402.6" clip-path="url(#terminal-4028595055-line-18)">&#160;&#160;&#160;&#160;a&#160;&#160;&#160;b&#160;&#160;&#160;c&#160;&#160;&#160;d&#160;&#160;&#160;e&#160;&#160;&#160;f&#160;&#160;&#160;g&#160;&#160;&#160;h</text><text class="terminal-4028595055-r1" x="585.6" y="459.2" textLength="12.2" clip-path="url(#terminal-4028595055-line-18)">
</text><text class="terminal-4028595055-r1" x="0" y="483.6" textLength="61" clip-path="url(#terminal-4028595055-line-19)">1.&#160;e4</text><text class="terminal-4028595055-r1" x="585.6" y="483.6" textLength="12.2" clip-path="url(#terminal-4028595055-line-19)">
</text><text class="terminal-4028595055-r5" x="0" y="508" textLength="585.6" clip-path="url(#terminal-4028595055-line-20)">Gemma&#160;did&#160;not&#160;return&#160;a&#160;legal&#160;move.&#160;retry&#160;or&#160;quit</text><text class="terminal-4028595055-r1" x="585.6" y="508" textLength="12.2" clip-path="url(#terminal-4028595055-line-20)">
</text><text class="terminal-4028595055-r2" x="0" y="532.4" textLength="402.6" clip-path="url(#terminal-4028595055-line-21)">the&#160;reply&#160;was&#160;not&#160;one&#160;JSON&#160;object</text><text class="terminal-4028595055-r1" x="585.6" y="532.4" textLength="12.2" clip-path="url(#terminal-4028595055-line-21)">
</text>
    </g>
    </g>
</svg>
